<svg width="22" height="23" viewBox="0 0 22 23" fill="none" xmlns="http://www.w3.org/2000/svg">
<path d="M18 5C15.6805 5 12.9706 3.66341 11.1104 2.04004C11.0796 2.01395 11.0403 2 11 2C10.9595 2 10.9204 2.01472 10.8896 2.04102L10.8887 2.04004C9.03932 3.65244 6.32008 5 4 5V12L4.00879 12.4121C4.09782 14.4376 4.8465 15.9389 5.98633 17.1064C7.22945 18.3796 8.98355 19.3001 10.9961 19.9951C11.0034 19.9976 11.0113 19.9993 11.0186 20.002C13.0236 19.3022 14.7728 18.3815 16.0137 17.1084C17.229 15.8615 18 14.2358 18 12V5ZM20 12C20 14.7641 19.021 16.8893 17.4463 18.5049C15.8988 20.0925 13.8204 21.1446 11.6689 21.8945L11.6611 21.8975C11.233 22.0425 10.7688 22.0373 10.3438 21.8848V21.8857C10.3379 21.8837 10.3321 21.8809 10.3262 21.8789C10.3246 21.8783 10.3228 21.8785 10.3213 21.8779V21.877C8.17204 21.1325 6.09956 20.0851 4.55566 18.5039C3.07782 16.9903 2.12517 15.0283 2.01172 12.5117L2 12V5C2.00012 4.46973 2.21097 3.9609 2.58594 3.58594C2.96099 3.21101 3.46967 3 4 3L4.32129 2.98828C5.95847 2.86776 8.05352 1.86257 9.58203 0.527344L9.59082 0.520508C9.98374 0.184832 10.4832 0 11 0C11.5168 0 12.0163 0.184832 12.4092 0.520508L12.418 0.527344C14.0575 1.96075 16.3229 3 18 3C18.5303 3 19.039 3.21101 19.4141 3.58594C19.789 3.96091 19.9999 4.46973 20 5V12Z" fill="url(#paint0_linear_1_7782)"/>
<defs>
<linearGradient id="paint0_linear_1_7782" x1="11" y1="0" x2="11" y2="22.0028" gradientUnits="userSpaceOnUse">
<stop stop-color="white" stop-opacity="0.9"/>
<stop offset="1" stop-color="white" stop-opacity="0.5"/>
</linearGradient>
</defs>
</svg>
