<svg width="66" height="66" viewBox="0 0 66 66" fill="none" xmlns="http://www.w3.org/2000/svg">
<rect width="66" height="66" rx="33" fill="white" fill-opacity="0.08"/>
<path d="M30.243 20.0017C30.873 19.9886 31.5001 20.1013 32.0858 20.3337C32.6712 20.5662 33.2047 20.9128 33.6541 21.3542C34.1035 21.7957 34.4601 22.3228 34.7029 22.9041C34.9454 23.4844 35.0696 24.1081 35.0682 24.7371V27.1003H37.4315V24.7371C37.4315 23.7969 37.8048 22.895 38.4695 22.2302C38.7443 21.9555 39.0596 21.7307 39.4012 21.5613C39.6958 20.9913 40.2905 20.6013 40.9764 20.6013C41.955 20.6016 42.7479 21.3951 42.7479 22.3738C42.7478 23.3524 41.955 24.146 40.9764 24.1462C40.6651 24.1462 40.3722 24.0655 40.118 23.9246C39.9105 24.1437 39.7947 24.4345 39.7947 24.7371V27.1003H42.0203C42.3448 26.7382 42.8152 26.5095 43.3397 26.5095C44.3183 26.5098 45.1111 27.3033 45.1111 28.282C45.1109 29.2605 44.3181 30.0532 43.3397 30.0535C42.8157 30.0535 42.3458 29.8251 42.0213 29.4636H35.0682V33.0076H37.2947C37.6192 32.6459 38.0889 32.4167 38.6131 32.4167C39.5918 32.4169 40.3855 33.2105 40.3856 34.1892C40.3856 35.168 39.5918 35.9615 38.6131 35.9617C38.0886 35.9617 37.6183 35.7329 37.2938 35.3708H35.0682V38.9158H40.9754C41.9155 38.9158 42.8175 39.2891 43.4822 39.9539C44.1136 40.5852 44.4809 41.4304 44.5164 42.3191C44.8809 42.6437 45.1111 43.1158 45.1111 43.6423C45.111 44.6209 44.3182 45.4145 43.3397 45.4148C42.3609 45.4148 41.5674 44.621 41.5672 43.6423C41.5672 43.1218 41.7919 42.6541 42.1492 42.3298C42.1197 42.0646 42.0019 41.8153 41.8113 41.6248C41.5898 41.4032 41.2887 41.2791 40.9754 41.2791H34.9471C34.8651 41.6784 34.7421 42.0692 34.5789 42.4451C34.2573 43.1857 33.7875 43.8532 33.1981 44.405C32.6087 44.9568 31.9122 45.3819 31.1522 45.6541C30.3919 45.9263 29.583 46.0403 28.7772 45.988C27.9716 45.9357 27.1851 45.7184 26.4666 45.3503C25.7481 44.9822 25.1126 44.4707 24.5994 43.8474C24.0862 43.224 23.7055 42.5014 23.4822 41.7253C23.3297 41.1949 23.2542 40.6468 23.2537 40.0974C22.6911 39.6758 22.206 39.1564 21.824 38.5613C21.3042 37.7512 20.9899 36.826 20.909 35.8669C20.8281 34.908 20.9835 33.9439 21.3602 33.0583C21.6162 32.4564 21.9714 31.9048 22.4061 31.4216C22.2119 30.8695 22.0989 30.29 22.075 29.7019C22.0386 28.8063 22.2068 27.9136 22.5662 27.0925C22.9257 26.2716 23.4666 25.5424 24.1492 24.9617C24.606 24.5731 25.119 24.2593 25.6678 24.0261C25.7156 23.7068 25.7965 23.392 25.909 23.0876C26.1274 22.4968 26.4618 21.9556 26.8924 21.4958C27.3231 21.0359 27.8423 20.6666 28.4178 20.4099C28.9929 20.1535 29.6134 20.0149 30.243 20.0017ZM30.2928 22.363C29.9779 22.3696 29.6673 22.4399 29.3797 22.5681C29.092 22.6964 28.8324 22.8811 28.617 23.1111C28.4018 23.3409 28.235 23.6116 28.1258 23.907C28.0166 24.2024 27.9673 24.5172 27.9813 24.8318C27.9813 24.8331 27.9812 24.8344 27.9813 24.8357C27.9968 25.2167 28.1044 25.5893 28.2947 25.9197C28.6202 26.485 28.4262 27.2071 27.8611 27.533C27.2958 27.8585 26.5727 27.6645 26.2469 27.0994C26.1426 26.9183 26.0525 26.7299 25.9734 26.5378C25.8722 26.6071 25.7743 26.6816 25.6805 26.7615C25.2711 27.1098 24.9469 27.5474 24.7313 28.0398C24.5156 28.5325 24.4135 29.0688 24.4354 29.6062C24.4415 29.7569 24.4581 29.9065 24.4832 30.0544C24.9064 30.0462 25.32 30.266 25.5399 30.6619C25.8565 31.2323 25.6512 31.9516 25.0809 32.2683C24.8982 32.3697 24.7243 32.487 24.5623 32.6189C24.5603 32.6205 24.5575 32.6212 24.5555 32.6228C24.1098 32.9863 23.7591 33.4539 23.534 33.9832C23.3081 34.5145 23.2159 35.0934 23.2645 35.6687C23.313 36.244 23.5015 36.799 23.8133 37.2849C24.1252 37.7707 24.5508 38.174 25.0535 38.4578L25.2557 38.5642C25.7354 38.7953 26.2623 38.915 26.7967 38.9148C27.4491 38.9147 27.9779 39.4441 27.9783 40.0964C27.9786 40.7488 27.45 41.2776 26.7977 41.2781C26.4591 41.2782 26.123 41.2462 25.7918 41.1892C25.9288 41.61 26.142 42.0022 26.4236 42.3445C26.7315 42.7184 27.1127 43.0259 27.5438 43.2468C27.975 43.4677 28.448 43.5983 28.9315 43.6296C29.4146 43.6609 29.8995 43.5926 30.3553 43.4294C30.8113 43.2661 31.2292 43.0105 31.5828 42.6794C31.9364 42.3484 32.219 41.948 32.4119 41.5037C32.6046 41.0598 32.7042 40.5812 32.7049 40.0974V34.1912C32.1209 34.6719 31.4552 35.0508 30.7342 35.3044C30.1187 35.5209 29.444 35.1971 29.2274 34.5818C29.0109 33.9664 29.3338 33.2917 29.949 33.075C30.7204 32.8036 31.3948 32.3092 31.8856 31.655C32.3719 31.0064 32.6566 30.2286 32.7049 29.4197V24.7332C32.7058 24.4185 32.6444 24.1066 32.5233 23.8162C32.4018 23.5255 32.2226 23.2615 31.9979 23.0408C31.7731 22.82 31.5065 22.6453 31.2137 22.5291C30.9211 22.413 30.6075 22.3565 30.2928 22.363Z" fill="url(#paint0_linear_1_8427)"/>
<defs>
<linearGradient id="paint0_linear_1_8427" x1="33" y1="19.9998" x2="33" y2="46.0004" gradientUnits="userSpaceOnUse">
<stop stop-color="white" stop-opacity="0.9"/>
<stop offset="1" stop-color="white" stop-opacity="0.5"/>
</linearGradient>
</defs>
</svg>
