<svg width="60" height="60" viewBox="0 0 60 60" fill="none" xmlns="http://www.w3.org/2000/svg">
<rect width="60" height="60" rx="30" fill="white" fill-opacity="0.08"/>
<path fill-rule="evenodd" clip-rule="evenodd" d="M30 17C30.6105 17.0001 31.2008 17.2187 31.665 17.6152L31.6748 17.624C33.6121 19.3178 36.2898 20.5449 38.2715 20.5449C38.898 20.545 39.4993 20.7944 39.9424 21.2373C40.3854 21.6803 40.6345 22.2818 40.6348 22.9082V31.1797C40.6348 34.4457 39.4778 36.9572 37.6172 38.8662C35.7887 40.7422 33.3323 41.985 30.79 42.8711L30.7812 42.875C30.2755 43.0464 29.7267 43.0405 29.2246 42.8604V42.8613C29.2177 42.8589 29.2101 42.8549 29.2031 42.8525C29.2015 42.8521 29.1998 42.8521 29.1982 42.8516V42.8506C26.6587 41.9709 24.2091 40.7336 22.3848 38.8652C20.6385 37.0767 19.513 34.7578 19.3789 31.7842L19.3652 31.1797V22.9082C19.3655 22.2818 19.6146 21.6803 20.0576 21.2373C20.5008 20.7944 21.102 20.5449 21.7285 20.5449L22.1084 20.5312C24.0428 20.3887 26.5182 19.2016 28.3242 17.624L28.335 17.6152C28.7992 17.2188 29.3895 17 30 17ZM30 19.3633C29.9522 19.3633 29.9055 19.381 29.8691 19.4121L29.8682 19.4111C27.683 21.3163 24.4699 22.9082 21.7285 22.9082V31.1797L21.7393 31.667C21.8445 34.0602 22.7285 35.8343 24.0752 37.2139C25.5441 38.7183 27.6171 39.8057 29.9951 40.627C30.0036 40.6299 30.013 40.6317 30.0215 40.6348C32.3907 39.808 34.4576 38.7201 35.9238 37.2158C37.3598 35.7425 38.2715 33.8216 38.2715 31.1797V22.9082C35.5307 22.9082 32.328 21.3293 30.1299 19.4111C30.0937 19.3804 30.0475 19.3633 30 19.3633ZM32.709 26.7998C33.1704 26.3385 33.9184 26.3387 34.3799 26.7998C34.8413 27.2612 34.8412 28.0092 34.3799 28.4707L29.6533 33.1973C29.1919 33.6587 28.4439 33.6587 27.9824 33.1973L25.6191 30.834C25.158 30.3725 25.1578 29.6244 25.6191 29.1631C26.0805 28.7017 26.8286 28.702 27.29 29.1631L28.8184 30.6914L32.709 26.7998Z" fill="url(#paint0_linear_0_4)"/>
<defs>
<linearGradient id="paint0_linear_0_4" x1="30" y1="17" x2="30" y2="42.9996" gradientUnits="userSpaceOnUse">
<stop stop-color="white" stop-opacity="0.9"/>
<stop offset="1" stop-color="white" stop-opacity="0.5"/>
</linearGradient>
</defs>
</svg>
