<svg width="66" height="66" viewBox="0 0 66 66" fill="none" xmlns="http://www.w3.org/2000/svg">
<rect width="66" height="66" rx="32.9998" fill="white" fill-opacity="0.08"/>
<path d="M30.368 26.8224L35.5826 21.5594C41.4868 16.6179 49.2791 24.4887 44.5341 30.3149C43.2453 31.8963 40.2938 34.7999 38.7203 36.1437C36.1858 38.3072 32.4841 38.2316 30.1116 35.8412C29.9456 35.6737 29.2101 34.8013 29.2992 34.6244C29.3423 34.5393 30.3869 33.5061 30.5205 33.4075C31.7648 32.4932 32.2924 33.6223 33.198 34.0693C34.3545 34.6406 35.503 34.5298 36.4935 33.7141C38.4355 32.1151 40.1778 29.7611 42.1076 28.0906C43.9376 25.2058 40.7972 22.0551 37.9079 23.8877L34.5151 27.2816C34.1683 27.4423 33.0819 26.8251 32.646 26.8251H30.3693L30.368 26.8224Z" fill="url(#paint0_linear_1_8372)"/>
<path d="M35.6312 39.1783L30.4166 44.4412C24.515 49.3814 16.7201 41.5106 21.4651 35.6858C22.7539 34.1044 25.7053 31.2007 27.2789 29.857C29.8133 27.6934 33.5151 27.7691 35.8876 30.1595C36.0536 30.327 36.7891 31.1994 36.7 31.3763C36.6568 31.4614 35.6123 32.4945 35.4787 32.5931C34.2547 33.4939 33.7148 32.3838 32.8012 31.9314C31.646 31.3601 30.4975 31.4708 29.5056 32.2866C27.5636 33.8869 25.8214 36.2395 23.8916 37.9101C22.0616 40.7962 25.202 43.9456 28.0913 42.1129L31.4841 38.7191C31.8147 38.5651 32.9847 39.1756 33.4544 39.1756H35.6298L35.6312 39.1783Z" fill="url(#paint1_linear_1_8372)"/>
<defs>
<linearGradient id="paint0_linear_1_8372" x1="37.6455" y1="20.0001" x2="37.6455" y2="37.7031" gradientUnits="userSpaceOnUse">
<stop stop-color="white" stop-opacity="0.9"/>
<stop offset="1" stop-color="white" stop-opacity="0.5"/>
</linearGradient>
<linearGradient id="paint1_linear_1_8372" x1="28.3538" y1="28.2976" x2="28.3538" y2="45.9998" gradientUnits="userSpaceOnUse">
<stop stop-color="white" stop-opacity="0.9"/>
<stop offset="1" stop-color="white" stop-opacity="0.5"/>
</linearGradient>
</defs>
</svg>
