<svg width="22" height="19" viewBox="0 0 22 19" fill="none" xmlns="http://www.w3.org/2000/svg">
<path d="M20.293 13.293C20.6835 12.9026 21.3165 12.9025 21.707 13.293C22.0975 13.6835 22.0974 14.3165 21.707 14.707L17.707 18.707C17.3165 19.0976 16.6835 19.0976 16.293 18.707L14.293 16.707C13.9025 16.3165 13.9025 15.6835 14.293 15.293C14.6835 14.9026 15.3165 14.9025 15.707 15.293L17 16.5859L20.293 13.293ZM19 0C19.7956 0 20.5585 0.316373 21.1211 0.878906C21.6836 1.44146 21.9999 2.20444 22 3V10C22 10.5523 21.5523 11 21 11C20.4477 11 20 10.5523 20 10V5.81934L12.5664 10.5439L12.5605 10.5479C12.1512 10.8042 11.6857 10.9546 11.2061 10.9883L11 10.9961C10.4481 10.9961 9.90721 10.8408 9.43945 10.5479L9.43359 10.5439L2 5.81934V15C2 15.5477 2.45228 16 3 16H11C11.5522 16 11.9999 16.4478 12 17C12 17.5523 11.5523 18 11 18H3C1.34772 18 0 16.6523 0 15V3C6.46956e-05 2.20444 0.316355 1.44146 0.878906 0.878906C1.4415 0.316373 2.20441 0 3 0H19ZM3 2C2.73484 2 2.48049 2.10551 2.29297 2.29297C2.10549 2.48045 2.00006 2.73487 2 3V3.4502L10.5 8.85254C10.6496 8.94626 10.8235 8.99609 11 8.99609L11.1318 8.98633C11.2617 8.9679 11.387 8.92271 11.499 8.85254L20 3.4502V3C19.9999 2.73487 19.8945 2.48045 19.707 2.29297C19.5429 2.1289 19.3276 2.02757 19.0986 2.00488L19 2H3Z" fill="url(#paint0_linear_1_10412)"/>
<defs>
<linearGradient id="paint0_linear_1_10412" x1="11" y1="0" x2="11" y2="18.9999" gradientUnits="userSpaceOnUse">
<stop stop-color="white" stop-opacity="0.9"/>
<stop offset="1" stop-color="white" stop-opacity="0.5"/>
</linearGradient>
</defs>
</svg>
