<svg width="22" height="20" viewBox="0 0 22 20" fill="none" xmlns="http://www.w3.org/2000/svg">
<path d="M1.49993 5.40208C1.97819 5.12601 2.58996 5.29003 2.86607 5.76827C3.14201 6.24651 2.97807 6.85833 2.49988 7.13442C2.34751 7.22243 2.22046 7.34907 2.13271 7.50159C2.04506 7.65407 1.99938 7.82763 1.9999 8.00352V17.0001C2.00007 17.2651 2.10548 17.5198 2.29286 17.7071C2.48035 17.8945 2.7348 18.0001 2.99985 18.0001H13.9993L14.1302 17.9913C14.2598 17.9742 14.3853 17.9311 14.4993 17.8653C14.6511 17.7777 14.7778 17.6519 14.8655 17.5001C15.1416 17.0219 15.7534 16.8578 16.2316 17.1339C16.7095 17.4102 16.8729 18.022 16.5968 18.5001C16.3336 18.9558 15.955 19.3345 15.4992 19.5977C15.0432 19.8609 14.5258 20 13.9993 20H2.99985C2.20439 20 1.44141 19.6835 0.878863 19.1211C0.316431 18.5587 0.000168191 17.7955 0 17.0001V8.00644C-0.00109361 7.47951 0.136697 6.96138 0.399395 6.50457C0.662745 6.04686 1.04262 5.66612 1.49993 5.40208ZM10.4995 0C10.8875 0 11.2705 0.090132 11.6176 0.263659C11.9647 0.43719 12.2665 0.689549 12.4994 0.999951L13.099 1.79972C13.1455 1.86178 13.2063 1.91246 13.2757 1.94717C13.3451 1.98188 13.4217 1.9999 13.4993 1.9999H18.9991C19.7946 1.9999 20.5575 2.31626 21.1201 2.87877C21.6826 3.44129 21.9989 4.20423 21.9989 4.99976V11.9994C21.9989 12.795 21.6826 13.5578 21.1201 14.1204C20.5575 14.683 19.7947 14.9993 18.9991 14.9993H7.99961C7.204 14.9993 6.4412 14.683 5.87862 14.1204C5.31612 13.5578 4.99976 12.795 4.99976 11.9994V2.99985C4.99982 2.20433 5.3161 1.44139 5.87862 0.878863C6.44119 0.316357 7.20406 1.76887e-06 7.99961 0H10.4995ZM7.99961 1.9999C7.73446 1.9999 7.48013 2.10541 7.29261 2.29286C7.10514 2.48033 6.99972 2.73474 6.99966 2.99985V11.9994L7.00454 12.098C7.02722 12.327 7.12855 12.5423 7.29261 12.7064C7.48014 12.8939 7.73441 12.9994 7.99961 12.9994H18.9991C19.2643 12.9994 19.5185 12.8939 19.7061 12.7064C19.8935 12.5189 19.999 12.2646 19.999 11.9994V4.99976C19.999 4.73464 19.8935 4.48023 19.7061 4.29276C19.5419 4.1287 19.3266 4.02737 19.0977 4.00469L18.9991 3.9998H13.4993C13.1112 3.9998 12.7284 3.90971 12.3812 3.73615C12.0342 3.56259 11.7323 3.3103 11.4994 2.99985L10.8999 2.20009C10.8533 2.13807 10.7925 2.08732 10.7231 2.05263C10.6537 2.01796 10.5771 1.9999 10.4995 1.9999H7.99961Z" fill="url(#paint0_linear_1_10493)"/>
<defs>
<linearGradient id="paint0_linear_1_10493" x1="10.9995" y1="0" x2="10.9995" y2="20" gradientUnits="userSpaceOnUse">
<stop stop-color="white" stop-opacity="0.9"/>
<stop offset="1" stop-color="white" stop-opacity="0.5"/>
</linearGradient>
</defs>
</svg>
