<svg width="300" height="230" viewBox="0 0 300 230" fill="none" xmlns="http://www.w3.org/2000/svg">
<g opacity="0.8">
<path d="M295.764 63.2498C294.438 62.7202 157.899 63.2498 157.899 63.2498C157.715 63.2498 157.534 63.2397 157.35 63.2195C153.862 62.8349 148.239 61.5362 144.224 56.6518C143.235 55.4476 142.273 53.9398 139.669 46.458C137.899 41.3745 136.19 35.8762 133.506 26.0702C131.61 19.1416 130.854 15.9978 128.951 10.4792C127.589 6.52581 126.907 4.55248 126.271 3.28415C125.273 1.30407 123.398 0.0795935 121.366 0.0829667C120.197 0.0829667 119.087 0.0829667 117.718 0.072847C96.8868 -0.0890674 32.3087 0.0694738 12.7161 0.0694738C5.69178 0.0694738 0 6.43811 0 14.2977L0 209.332C0 220.747 8.26935 230 18.4711 230H281.529C291.731 230 300 220.747 300 209.332V70.5596C300 70.3842 299.997 70.2088 299.982 70.0334C299.732 66.8356 298.089 64.1775 295.767 63.2498H295.764Z" fill="white" fill-opacity="0.05"/>
<path d="M12.7158 0.569336C32.3123 0.569336 96.8857 0.411347 117.715 0.573242C119.086 0.583376 120.197 0.583008 121.366 0.583008H121.367C123.075 0.58021 124.688 1.5457 125.643 3.1748L125.824 3.50879C126.441 4.73917 127.109 6.67038 128.478 10.6426C130.374 16.1413 131.125 19.2638 133.024 26.2021C135.709 36.0147 137.422 41.5246 139.196 46.6221C141.801 54.1044 142.786 55.6894 143.837 56.9687L143.838 56.9697C147.976 62.0028 153.757 63.3267 157.295 63.7168C157.497 63.739 157.696 63.75 157.898 63.75H157.9L157.898 63.25C157.9 63.7498 157.901 63.75 157.902 63.75H157.926C157.942 63.7499 157.967 63.7491 157.999 63.749C158.065 63.7488 158.163 63.7485 158.292 63.748C158.55 63.747 158.934 63.746 159.435 63.7441C160.435 63.7404 161.902 63.7352 163.769 63.7285C167.505 63.7151 172.844 63.6965 179.255 63.6758C192.076 63.6344 209.185 63.5839 226.335 63.5508C243.485 63.5177 260.676 63.5015 273.662 63.5264C280.155 63.5388 285.596 63.5615 289.455 63.5976C291.384 63.6157 292.916 63.637 293.985 63.6621C294.52 63.6747 294.937 63.6889 295.227 63.7031C295.373 63.7102 295.483 63.7168 295.559 63.7236C295.586 63.7261 295.606 63.7287 295.62 63.7305L295.625 63.7324C297.694 64.5843 299.244 67.0199 299.483 70.0723V70.0762C299.497 70.2301 299.5 70.3887 299.5 70.5596V209.332C299.5 220.525 291.403 229.5 281.529 229.5H18.4707C8.59661 229.5 0.5 220.525 0.5 209.332V14.2978C0.5 6.66017 6.01914 0.569477 12.7158 0.569336Z" stroke="url(#paint0_linear_1_10609)" stroke-opacity="0.6"/>
<path d="M137.884 16.1733H269.313C271.194 16.1733 273.057 16.5747 274.797 17.3708C276.955 18.3591 279.569 20.0221 281.872 22.9703C285.761 27.9492 286.382 33.5352 286.518 35.5625V55.5522H266.51V44.3565C266.262 42.5249 265.659 40.4874 263.697 38.8346C261.502 36.9894 258.68 36.6858 257.936 36.76C252.488 37.3133 206.978 37.1243 143.868 36.7094C141.604 29.8449 140.145 23.0344 137.884 16.1699V16.1733Z" fill="white" fill-opacity="0.05"/>
<path d="M267.01 44.3232L267.005 44.29C266.765 42.5145 266.192 40.4888 264.395 38.7881L264.019 38.4521L263.798 38.2725C262.687 37.4016 261.458 36.8871 260.406 36.5957C259.295 36.2878 258.338 36.2176 257.886 36.2627H257.885C255.194 36.5359 242.494 36.6276 222.526 36.5976C202.657 36.5678 175.633 36.4172 144.232 36.2109C143.155 32.9079 142.257 29.6152 141.357 26.3086C140.487 23.1095 139.611 19.8981 138.571 16.6728H269.313C271.123 16.6729 272.915 17.0592 274.589 17.8252C276.691 18.7878 279.235 20.4062 281.479 23.2783C285.266 28.1276 285.883 33.5778 286.019 35.582V55.0527H267.01V44.3232Z" stroke="url(#paint1_linear_1_10609)" stroke-opacity="0.6"/>
<path d="M145.788 43.635H251.014C251.611 43.5574 255.072 43.5506 257.495 45.9726C259.458 47.9325 259.524 50.26 259.723 51.6295C259.958 53.2554 259.853 54.635 259.723 55.5526H154.811C153.895 55.3265 151.103 54.9926 148.658 51.1134C146.916 48.3474 145.837 44.8561 145.788 43.635Z" fill="white" fill-opacity="0.05"/>
<path d="M251.078 44.1304C251.312 44.1 252.266 44.0741 253.455 44.353C254.638 44.6303 256.015 45.2006 257.142 46.3267C258.734 47.9171 258.979 49.7468 259.154 51.1352L259.229 51.7016C259.421 53.031 259.376 54.1903 259.282 55.0522H154.866C154.366 54.935 153.547 54.7979 152.543 54.2622C151.504 53.7075 150.259 52.715 149.081 50.8472C148.234 49.5017 147.543 47.9714 147.059 46.6255C146.695 45.6142 146.458 44.7369 146.352 44.1352H251.046L251.078 44.1304Z" stroke="url(#paint2_linear_1_10609)" stroke-opacity="0.6"/>
</g>
<defs>
<linearGradient id="paint0_linear_1_10609" x1="267.928" y1="-25.7552" x2="15.5086" y2="269.151" gradientUnits="userSpaceOnUse">
<stop stop-color="white" stop-opacity="0.6"/>
<stop offset="1" stop-color="white" stop-opacity="0"/>
</linearGradient>
<linearGradient id="paint1_linear_1_10609" x1="280.818" y1="-43.784" x2="177.217" y2="142.878" gradientUnits="userSpaceOnUse">
<stop stop-color="white" stop-opacity="0.6"/>
<stop offset="1" stop-color="white" stop-opacity="0"/>
</linearGradient>
<linearGradient id="paint2_linear_1_10609" x1="259.642" y1="-12.8773" x2="191.892" y2="102.576" gradientUnits="userSpaceOnUse">
<stop stop-color="white" stop-opacity="0.6"/>
<stop offset="1" stop-color="white" stop-opacity="0"/>
</linearGradient>
</defs>
</svg>
