<svg width="60" height="60" viewBox="0 0 60 60" fill="none" xmlns="http://www.w3.org/2000/svg">
<rect width="60" height="60" rx="30" fill="white" fill-opacity="0.08"/>
<path d="M35.9092 17C36.5618 17 37.0907 17.5291 37.0908 18.1816V19.3633C39.0489 19.3633 40.6367 20.9511 40.6367 22.9092H41.8184C42.4709 22.9093 43 23.4382 43 24.0908C43 24.7435 42.471 25.2724 41.8184 25.2725H40.6367V28.8184H41.8184C42.471 28.8185 43 29.3474 43 30C43 30.6526 42.471 31.1815 41.8184 31.1816H40.6367V34.7275H41.8184C42.471 34.7276 43 35.2565 43 35.9092C43 36.5618 42.4709 37.0907 41.8184 37.0908H40.6367L40.6318 37.2734C40.5399 39.0863 39.0863 40.5399 37.2734 40.6318L37.0908 40.6367V41.8184C37.0907 42.4709 36.5618 43 35.9092 43C35.2565 43 34.7276 42.471 34.7275 41.8184V40.6367H31.1816V41.8184C31.1815 42.471 30.6526 43 30 43C29.3474 43 28.8185 42.471 28.8184 41.8184V40.6367H25.2725V41.8184C25.2724 42.471 24.7435 43 24.0908 43C23.4382 43 22.9093 42.4709 22.9092 41.8184V40.6367L22.7266 40.6318C20.8533 40.5368 19.3633 38.9877 19.3633 37.0908H18.1816C17.5291 37.0907 17 36.5618 17 35.9092C17 35.2565 17.529 34.7276 18.1816 34.7275H19.3633V31.1816H18.1816C17.529 31.1815 17 30.6526 17 30C17 29.3474 17.529 28.8185 18.1816 28.8184H19.3633V25.2725H18.1816C17.529 25.2724 17 24.7435 17 24.0908C17 23.4382 17.5291 22.9093 18.1816 22.9092H19.3633C19.3633 21.0123 20.8533 19.4632 22.7266 19.3682L22.9092 19.3633V18.1816C22.9093 17.5291 23.4382 17 24.0908 17C24.7435 17 25.2724 17.529 25.2725 18.1816V19.3633H28.8184V18.1816C28.8185 17.529 29.3474 17 30 17C30.6526 17 31.1815 17.529 31.1816 18.1816V19.3633H34.7275V18.1816C34.7276 17.529 35.2565 17 35.9092 17ZM22.9092 21.7275C22.2565 21.7275 21.7275 22.2565 21.7275 22.9092V37.0908C21.7275 37.7435 22.2565 38.2725 22.9092 38.2725H37.0908C37.7435 38.2725 38.2725 37.7435 38.2725 37.0908V22.9092C38.2725 22.2565 37.7435 21.7275 37.0908 21.7275H22.9092ZM33.5459 24.0908C34.8509 24.0911 35.9089 25.1491 35.9092 26.4541V33.5459C35.9089 34.8509 34.8509 35.9089 33.5459 35.9092H26.4541C25.1491 35.9089 24.0911 34.8509 24.0908 33.5459V26.4541C24.0911 25.1491 25.1491 24.0911 26.4541 24.0908H33.5459ZM26.4541 33.5459H33.5459V26.4541H26.4541V33.5459Z" fill="url(#paint0_linear_0_34)"/>
<defs>
<linearGradient id="paint0_linear_0_34" x1="30" y1="17" x2="30" y2="43" gradientUnits="userSpaceOnUse">
<stop stop-color="white" stop-opacity="0.9"/>
<stop offset="1" stop-color="white" stop-opacity="0.5"/>
</linearGradient>
</defs>
</svg>
