<svg width="24" height="24" viewBox="0 0 24 24" fill="none" xmlns="http://www.w3.org/2000/svg">
<path d="M12 0C12.6024 0 13.0906 0.488481 13.0908 1.09082V2.24316C14.0914 2.35377 15.0458 2.6157 15.9326 3.00391L16.5098 2.00781C16.8111 1.48642 17.4785 1.30743 18 1.6084C18.5214 1.9098 18.7005 2.5771 18.3994 3.09863L17.8223 4.0957C18.6159 4.68123 19.3177 5.38326 19.9033 6.17676L20.9014 5.60059C21.4228 5.29952 22.0901 5.47874 22.3916 6C22.6928 6.52157 22.5147 7.18976 21.9932 7.49121L20.9961 8.06641C21.3845 8.95346 21.6462 9.90831 21.7568 10.9092H22.9092C23.5115 10.9092 23.9998 11.3977 24 12C24 12.6025 23.5116 13.0908 22.9092 13.0908H21.7568C21.6462 14.0917 21.3845 15.0465 20.9961 15.9336L21.9932 16.5098C22.5146 16.8112 22.6927 17.4785 22.3916 18C22.0901 18.5215 21.4229 18.7007 20.9014 18.3994L19.9043 17.8223C19.3185 18.6163 18.6163 19.3184 17.8223 19.9043L18.3994 20.9014C18.7008 21.423 18.5216 22.0901 18 22.3916C17.4784 22.6928 16.8112 22.5147 16.5098 21.9932L15.9336 20.9961C15.0465 21.3845 14.0917 21.6452 13.0908 21.7559V22.9092C13.0908 23.5117 12.6025 24 12 24C11.3975 24 10.9092 23.5117 10.9092 22.9092V21.7559C9.90787 21.6451 8.95283 21.3838 8.06543 20.9951L7.49023 21.9932C7.1889 22.5146 6.52163 22.6937 6 22.3926C5.47836 22.0913 5.29944 21.4231 5.60059 20.9014L6.17578 19.9033C5.3825 19.3177 4.68109 18.6157 4.0957 17.8223L3.09863 18.3994C2.5771 18.7005 1.90883 18.5214 1.60742 18C1.30674 17.4786 1.48574 16.8112 2.00684 16.5098L3.00293 15.9326C2.61481 15.0459 2.35373 14.0913 2.24316 13.0908H1.09082C0.488369 13.0908 0 12.6025 0 12C0.00014383 11.3977 0.488457 10.9092 1.09082 10.9092H2.24316C2.35384 9.90831 2.61545 8.95346 3.00391 8.06641L2.00684 7.49023C1.48579 7.18869 1.30647 6.52137 1.60742 6C1.90883 5.47858 2.5771 5.29954 3.09863 5.60059L4.0957 6.17676C4.68101 5.38364 5.38272 4.68206 6.17578 4.09668L5.60059 3.09863C5.29951 2.57695 5.47848 1.90967 6 1.6084C6.52176 1.30724 7.18901 1.4861 7.49023 2.00781L8.06543 3.00488C8.95281 2.61619 9.90789 2.35385 10.9092 2.24316V1.09082C10.9094 0.488481 11.3976 6.44001e-08 12 0ZM15.0859 13.0908C14.6367 14.362 13.425 15.2734 12 15.2734C11.7954 15.2734 11.5955 15.2527 11.4014 15.2168L9.16504 19.0898C10.0419 19.4408 10.9978 19.6367 12 19.6367C15.8471 19.6367 19.0284 16.7916 19.5576 13.0908H15.0859ZM7.27637 6.00195C5.50314 7.40027 4.36338 9.56653 4.36328 12C4.36328 14.4332 5.50351 16.5987 7.27637 17.9971L9.5127 14.124C9.02401 13.5522 8.72754 12.8111 8.72754 12C8.7276 11.1888 9.0239 10.4478 9.5127 9.87598L7.27637 6.00195ZM12 10.9092C11.8123 10.9092 11.6357 10.9566 11.4814 11.04C11.4725 11.0456 11.4642 11.0523 11.4551 11.0576C11.4505 11.0603 11.445 11.0619 11.4404 11.0645C11.1224 11.255 10.9093 11.6023 10.9092 12C10.9092 12.3933 11.1175 12.7377 11.4297 12.9297C11.4379 12.9342 11.4469 12.9377 11.4551 12.9424C11.4661 12.9488 11.4765 12.9562 11.4873 12.9629C11.6402 13.0445 11.8146 13.0908 12 13.0908C12.6025 13.0908 13.0908 12.6025 13.0908 12C13.0907 11.3976 12.6024 10.9092 12 10.9092ZM12 4.36426C10.998 4.36426 10.0417 4.55837 9.16504 4.90918L11.4014 8.7832C11.5955 8.74731 11.7955 8.72754 12 8.72754C13.4248 8.72754 14.6366 9.63824 15.0859 10.9092H19.5576C19.0281 7.2087 15.8469 4.36426 12 4.36426Z" fill="url(#paint0_linear_1_10641)"/>
<defs>
<linearGradient id="paint0_linear_1_10641" x1="12" y1="0" x2="12" y2="24" gradientUnits="userSpaceOnUse">
<stop stop-color="white" stop-opacity="0.9"/>
<stop offset="1" stop-color="white" stop-opacity="0.5"/>
</linearGradient>
</defs>
</svg>
