<svg width="23" height="24" viewBox="0 0 23 24" fill="none" xmlns="http://www.w3.org/2000/svg">
<path d="M8.63458 0.000976572C9.21604 -0.0111433 9.79519 0.0931057 10.3358 0.30762C10.8761 0.522114 11.3682 0.842662 11.783 1.25001C12.1979 1.65751 12.5276 2.14413 12.7518 2.68069C12.9756 3.21634 13.09 3.79163 13.0887 4.37211V6.55378H15.2704V4.37211C15.2705 3.50444 15.6149 2.67216 16.2284 2.05861C16.4817 1.80531 16.7729 1.59876 17.0878 1.4424C17.3596 0.91572 17.9084 0.555712 18.5419 0.55567C19.4454 0.55567 20.1777 1.28788 20.1777 2.19143C20.1776 3.09491 19.4454 3.82719 18.5419 3.82719C18.2547 3.82717 17.9855 3.7521 17.7509 3.62211C17.559 3.82438 17.4512 4.0926 17.4511 4.37211V6.55378H19.5058C19.8053 6.2196 20.2395 6.00885 20.7236 6.00885C21.6271 6.00885 22.3593 6.74107 22.3593 7.64461C22.3593 8.54815 21.6271 9.28036 20.7236 9.28037C20.2395 9.28037 19.8053 9.06962 19.5058 8.73544H13.0887V12.0079H15.1434C15.443 11.6736 15.877 11.462 16.3612 11.462C17.2646 11.4622 17.9969 12.1944 17.997 13.0978C17.997 14.0012 17.2646 14.7334 16.3612 14.7335C15.8772 14.7335 15.443 14.5227 15.1434 14.1886H13.0887V17.4601H18.5419C19.4097 17.4601 20.2418 17.8055 20.8554 18.4191C21.4381 19.0018 21.7767 19.7816 21.8095 20.6018C22.1464 20.9014 22.3593 21.3371 22.3593 21.8235C22.3593 22.727 21.6271 23.4592 20.7236 23.4592C19.82 23.4592 19.0878 22.727 19.0878 21.8235C19.0878 21.3431 19.2952 20.9118 19.6249 20.6125C19.5977 20.3675 19.4894 20.1372 19.3134 19.9611C19.1089 19.7566 18.8312 19.6418 18.5419 19.6418H12.9774C12.9017 20.0105 12.7883 20.3719 12.6375 20.719C12.3407 21.4025 11.9071 22.0183 11.3631 22.5276C10.8191 23.0369 10.1761 23.4296 9.47443 23.6809C8.77266 23.9322 8.02586 24.0368 7.28203 23.9885C6.53849 23.9402 5.81236 23.7403 5.14919 23.4006C4.48598 23.0608 3.8992 22.5882 3.42554 22.0129C2.9518 21.4374 2.60034 20.7703 2.39428 20.0539C2.25345 19.5643 2.18377 19.0582 2.18334 18.551C1.66413 18.1618 1.21648 17.6822 0.863992 17.133C0.384262 16.3854 0.0940051 15.5318 0.0192568 14.6466C-0.0554057 13.7615 0.0876408 12.8713 0.435277 12.0538C0.671639 11.4981 0.999863 10.9882 1.40111 10.5421C1.22196 10.0325 1.11751 9.498 1.09544 8.95517C1.06191 8.12855 1.21681 7.30481 1.54857 6.54694C1.88039 5.78905 2.38034 5.11623 3.0105 4.58012C3.43211 4.22148 3.90534 3.93111 4.41188 3.71586C4.45604 3.42131 4.53079 3.13138 4.63454 2.85061C4.83611 2.30526 5.14439 1.80529 5.54177 1.38087C5.93938 0.956344 6.41878 0.614835 6.94999 0.377934C7.48079 0.141306 8.05355 0.0132006 8.63458 0.000976572ZM8.68048 2.18166C8.39 2.18777 8.10404 2.25284 7.83867 2.37112C7.57324 2.48949 7.33329 2.65905 7.13456 2.87112C6.93579 3.08336 6.78127 3.33373 6.68046 3.60648C6.57968 3.87915 6.53473 4.1696 6.54764 4.46001C6.54789 4.46554 6.54748 4.47109 6.54764 4.47661C6.56383 4.82387 6.66317 5.16257 6.83671 5.46392C7.13714 5.98568 6.95783 6.65242 6.43631 6.9532C5.91437 7.25388 5.24675 7.07475 4.94606 6.5528C4.84983 6.38571 4.76606 6.21251 4.69313 6.03522C4.59998 6.09904 4.50999 6.16779 4.4236 6.24127C4.04556 6.56292 3.74571 6.96726 3.54664 7.42195C3.34763 7.87665 3.25403 8.37134 3.27417 8.86728C3.27984 9.00615 3.29496 9.14405 3.31812 9.28037C3.70883 9.27271 4.09076 9.47646 4.29371 9.8419C4.58593 10.3684 4.39624 11.0319 3.86988 11.3243C3.70131 11.4179 3.54087 11.5268 3.39136 11.6486C3.38717 11.652 3.38191 11.654 3.37769 11.6573C2.96974 11.992 2.64875 12.4217 2.44213 12.9074C2.23361 13.3978 2.14831 13.932 2.19311 14.463C2.23794 14.9942 2.4121 15.5066 2.69995 15.9552C2.98786 16.4038 3.38133 16.7753 3.84547 17.0373C3.84877 17.0392 3.85195 17.0412 3.85523 17.0431C4.3437 17.3164 4.89407 17.4604 5.45388 17.4601C6.05611 17.46 6.54443 17.9487 6.54471 18.551C6.54479 19.153 6.05694 19.6413 5.45486 19.6418C5.142 19.6419 4.83125 19.6125 4.52516 19.5598C4.65163 19.9482 4.84912 20.3103 5.10915 20.6262C5.39336 20.9714 5.74536 21.2553 6.14334 21.4592C6.54132 21.6631 6.97741 21.7828 7.42363 21.8117C7.8697 21.8407 8.31723 21.7778 8.7381 21.6272C9.15913 21.4764 9.54542 21.2404 9.8719 20.9348C10.1982 20.6292 10.4594 20.2599 10.6375 19.8498C10.8154 19.4401 10.9064 18.9977 10.9071 18.551L10.908 13.1163C10.9079 13.1108 10.9071 13.1053 10.9071 13.0997C10.3681 13.5433 9.75401 13.893 9.08868 14.1271C8.52052 14.327 7.89702 14.0282 7.69707 13.4601C7.49721 12.892 7.79601 12.2694 8.36407 12.0695C9.07612 11.819 9.69823 11.3627 10.1512 10.7589C10.6 10.1605 10.8632 9.44276 10.908 8.69638V7.66316C10.9079 7.65699 10.9071 7.65081 10.9071 7.64461C10.9071 7.63841 10.9079 7.63223 10.908 7.62605V4.36919C10.9089 4.07857 10.851 3.79069 10.7391 3.5225C10.627 3.25417 10.4622 3.01045 10.2547 2.80667C10.0474 2.60301 9.80119 2.44225 9.53107 2.33498C9.26089 2.22782 8.97108 2.17561 8.68048 2.18166Z" fill="url(#paint0_linear_1_10343)"/>
<defs>
<linearGradient id="paint0_linear_1_10343" x1="11.1798" y1="0" x2="11.1798" y2="23.9999" gradientUnits="userSpaceOnUse">
<stop stop-color="white" stop-opacity="0.9"/>
<stop offset="1" stop-color="white" stop-opacity="0.5"/>
</linearGradient>
</defs>
</svg>
