<svg width="60" height="60" viewBox="0 0 60 60" fill="none" xmlns="http://www.w3.org/2000/svg">
<rect width="60" height="60" rx="30" fill="white" fill-opacity="0.08"/>
<path d="M32.3633 17C33.3036 17 34.2052 17.3742 34.8701 18.0391C35.5349 18.704 35.9092 19.6056 35.9092 20.5459V21.7275H40.6357C41.2884 21.7275 41.8184 22.2565 41.8184 22.9092C41.8183 23.5618 41.2884 24.0908 40.6357 24.0908H39.4541V39.4541C39.4541 40.3942 39.0807 41.2961 38.416 41.9609C37.7512 42.6258 36.8494 42.9999 35.9092 43H24.0908C23.1505 43 22.2489 42.6258 21.584 41.9609C20.9192 41.2961 20.5449 40.3943 20.5449 39.4541V24.0908H19.3633C18.7107 24.0907 18.1817 23.5618 18.1816 22.9092C18.1816 22.2565 18.7107 21.7276 19.3633 21.7275H24.0908V20.5459C24.0908 19.6056 24.465 18.704 25.1299 18.0391C25.7947 17.3743 26.6956 17.0001 27.6357 17H32.3633ZM22.9092 39.4541L22.915 39.5713C22.9419 39.8418 23.0611 40.0961 23.2549 40.29C23.4765 40.5117 23.7774 40.6367 24.0908 40.6367H35.9092C36.2225 40.6366 36.5226 40.5115 36.7441 40.29C36.9658 40.0684 37.0908 39.7675 37.0908 39.4541V24.0908H22.9092V39.4541ZM27.6357 27.6367C28.2884 27.6367 28.8184 28.1657 28.8184 28.8184V35.9092C28.8183 36.5618 28.2884 37.0908 27.6357 37.0908C26.9833 37.0906 26.4541 36.5617 26.4541 35.9092V28.8184C26.4541 28.1658 26.9832 27.637 27.6357 27.6367ZM32.3633 27.6367C33.016 27.6367 33.5449 28.1657 33.5449 28.8184V35.9092C33.5449 36.5618 33.016 37.0908 32.3633 37.0908C31.7107 37.0907 31.1817 36.5618 31.1816 35.9092V28.8184C31.1816 28.1657 31.7107 27.6368 32.3633 27.6367ZM27.6357 19.3633C27.3225 19.3634 27.0223 19.4885 26.8008 19.71C26.5791 19.9316 26.4541 20.2325 26.4541 20.5459V21.7275H33.5449V20.5459C33.5449 20.2325 33.4208 19.9316 33.1992 19.71C33.0053 19.5161 32.7509 19.396 32.4805 19.3691L32.3633 19.3633H27.6357Z" fill="url(#paint0_linear_0_64)"/>
<defs>
<linearGradient id="paint0_linear_0_64" x1="30" y1="17" x2="30" y2="43" gradientUnits="userSpaceOnUse">
<stop stop-color="white" stop-opacity="0.9"/>
<stop offset="1" stop-color="white" stop-opacity="0.5"/>
</linearGradient>
</defs>
</svg>
