<svg width="21" height="24" viewBox="0 0 21 24" fill="none" xmlns="http://www.w3.org/2000/svg">
<path d="M9.8048 11.4617L0.0895995 22.0059C0.090512 22.0078 0.0905118 22.0106 0.0914243 22.0125C0.389806 23.1574 1.41179 24 2.62539 24C3.11083 24 3.56616 23.8656 3.9567 23.6305L3.98773 23.6118L14.9229 17.1593L9.8048 11.4617Z" fill="#EA4335"/>
<path d="M19.6331 9.66621L19.624 9.65967L14.9028 6.86125L9.58391 11.7013L14.9219 17.1582L19.6176 14.3878C20.4406 13.9324 21 13.045 21 12.0223C21 11.0052 20.4488 10.1225 19.6331 9.66621Z" fill="#FBBC04"/>
<path d="M0.0894233 1.99334C0.0310244 2.21355 0 2.44497 0 2.68385V21.3163C0 21.5552 0.0310244 21.7866 0.0903358 22.0059L10.1386 11.7314L0.0894233 1.99334Z" fill="#4285F4"/>
<path d="M9.87616 11.9999L14.9039 6.85935L3.98152 0.383506C3.58459 0.139962 3.12105 -4.76837e-06 2.62557 -4.76837e-06C1.41197 -4.76837e-06 0.388161 0.844467 0.0897791 1.99034C0.0897791 1.99127 0.0888671 1.9922 0.0888671 1.99313L9.87616 11.9999Z" fill="#34A853"/>
</svg>
