<svg width="22" height="22" viewBox="0 0 22 22" fill="none" xmlns="http://www.w3.org/2000/svg">
<path d="M11 0C17.0751 0 21.9999 4.92498 22 11C22 17.0751 17.0751 22 11 22C4.92487 22 0 17.0751 0 11C0.000131941 4.92498 4.92495 0 11 0ZM11 2C6.02952 2 2.00013 6.02955 2 11C2 15.9706 6.02944 20 11 20C15.9706 20 20 15.9706 20 11C19.9999 6.02955 15.9705 2 11 2ZM11 4C11.5522 4 11.9999 4.44783 12 5V10.3818L15.4473 12.1055C15.9412 12.3524 16.1414 12.9533 15.8945 13.4473C15.6475 13.9412 15.0467 14.1415 14.5527 13.8945L10.5527 11.8945C10.214 11.7251 10 11.3787 10 11V5C10.0001 4.44783 10.4478 4 11 4Z" fill="url(#paint0_linear_1_10584)"/>
<defs>
<linearGradient id="paint0_linear_1_10584" x1="11" y1="0" x2="11" y2="22" gradientUnits="userSpaceOnUse">
<stop stop-color="white" stop-opacity="0.9"/>
<stop offset="1" stop-color="white" stop-opacity="0.5"/>
</linearGradient>
</defs>
</svg>
