<svg width="20" height="20" viewBox="0 0 20 20" fill="none" xmlns="http://www.w3.org/2000/svg">
<path d="M1 0C1.5522 0 1.99987 0.447827 2 1V17C2 17.2652 2.10551 17.5195 2.29297 17.707C2.48051 17.8946 2.73478 18 3 18H19C19.5522 18 19.9999 18.4478 20 19C20 19.5523 19.5523 20 19 20H3C2.20435 20 1.44151 19.6837 0.878906 19.1211C0.316373 18.5585 0 17.7956 0 17V1C0.00013192 0.447827 0.447797 0 1 0ZM13 13C13.5522 13 13.9999 13.4478 14 14C14 14.5523 13.5523 15 13 15H5C4.44772 15 4 14.5523 4 14C4.00013 13.4478 4.4478 13 5 13H13ZM17 8C17.5522 8 17.9999 8.44783 18 9C18 9.55229 17.5523 10 17 10H5C4.44772 10 4 9.55229 4 9C4.00013 8.44783 4.4478 8 5 8H17ZM8 3C8.5522 3 8.99987 3.44783 9 4C9 4.55228 8.55229 5 8 5H5C4.44772 5 4 4.55228 4 4C4.00013 3.44783 4.4478 3 5 3H8Z" fill="url(#paint0_linear_1_10525)"/>
<defs>
<linearGradient id="paint0_linear_1_10525" x1="10" y1="0" x2="10" y2="20" gradientUnits="userSpaceOnUse">
<stop stop-color="white" stop-opacity="0.9"/>
<stop offset="1" stop-color="white" stop-opacity="0.5"/>
</linearGradient>
</defs>
</svg>
